<?xml version="1.0" encoding="UTF-8"?>
<!DOCTYPE svg PUBLIC "-//W3C//DTD SVG 1.1//EN" "http://www.w3.org/Graphics/SVG/1.1/DTD/svg11.dtd">
<!-- Creator: CorelDRAW 2020 (64-Bit) -->
<svg xmlns="http://www.w3.org/2000/svg" xml:space="preserve" width="1.17313in" height="0.894134in" version="1.1" style="shape-rendering:geometricPrecision; text-rendering:geometricPrecision; image-rendering:optimizeQuality; fill-rule:evenodd; clip-rule:evenodd"
viewBox="0 0 1329.06 1012.97"
 xmlns:xlink="http://www.w3.org/1999/xlink"
 xmlns:xodm="http://www.corel.com/coreldraw/odm/2003">
 <defs>
  <style type="text/css">
   <![CDATA[
    .fil0 {fill:black}
   ]]>
  </style>
 </defs>
 <g id="Layer_x0020_1">
  <metadata id="CorelCorpID_0Corel-Layer"/>
  <path class="fil0" d="M1064.29 935.1l-804.71 0c-86.32,0 -157.33,-47.44 -176.51,-129.79l1162.92 0c-4.13,8.63 -6.4,19.63 -10.36,28.57 -10.62,23.97 -32.09,48.93 -52.64,64.17 -31.4,23.29 -65.09,37.05 -118.7,37.05zm129.79 -207.67l-1059.09 0c0,-47.77 22.81,-132.64 44.13,-176.52 3.73,-7.69 6.51,-16.02 10.31,-23.43l62.71 -95.64c88.55,-111.93 238.35,-191.56 381.3,-194.97 13.26,-0.32 16.18,-2.82 31.1,-2.82 25.36,0 90.71,8.55 114.03,13.34 75.2,15.46 157.8,55.03 216.24,103.05 69.06,56.74 113.79,112.2 153.42,197.01 22.63,48.43 45.85,126.98 45.85,179.99zm-594.44 -568.48c0,-33.63 8.11,-58.5 36.17,-72.85 42.64,-21.8 93.62,8.16 93.62,65.06l0 7.79c-14.81,0 -17.96,-2.6 -33.75,-2.6l-62.3 0c-15.79,0 -18.93,2.6 -33.74,2.6zm-77.88 12.98c-8.4,4.03 -64.33,15.49 -137.58,51.91 -55.42,27.56 -105.12,64.89 -148.61,108.38 -23.6,23.6 -39.58,41.23 -59.43,67.76 -26.29,35.16 -54.04,79.52 -71.21,120.88 -23.05,55.51 -49.01,143.61 -50.41,206.57l-20.77 0c-15.92,0 -33.75,17.83 -33.75,33.74 0,44.7 5.23,74.79 23.32,111.66 13.31,27.13 28.08,47.47 48.71,68.1 39.72,39.72 101.21,72.03 161.59,72.03l854.02 0c95.4,0 178.88,-64.61 216.32,-139.31 20.22,-40.33 25.09,-64.39 25.09,-112.49 0,-15.91 -17.83,-33.74 -33.75,-33.74l-20.77 0 -6.65 -55.66c-12.64,-79.48 -43.51,-166.77 -87.31,-231.97 -9.3,-13.84 -16.44,-24.84 -26.56,-38.34l-127.56 -126.82c-21.8,-16.44 -53.31,-36.8 -78.11,-49.08 -32.51,-16.09 -55.07,-27.2 -90.74,-39.05l-50.31 -14.59c0,-61.95 -2.42,-94.86 -51.22,-138.28 -72.12,-64.15 -195.2,-33.63 -228.25,66.47 -7.74,23.43 -6.07,42.27 -6.07,71.81z"/>
 </g>
</svg>
