<?xml version="1.0" encoding="UTF-8"?>
<!DOCTYPE svg PUBLIC "-//W3C//DTD SVG 1.1//EN" "http://www.w3.org/Graphics/SVG/1.1/DTD/svg11.dtd">
<!-- Creator: CorelDRAW 2020 (64-Bit) -->
<svg xmlns="http://www.w3.org/2000/svg" xml:space="preserve" width="5.33266in" height="5.33266in" version="1.1" style="shape-rendering:geometricPrecision; text-rendering:geometricPrecision; image-rendering:optimizeQuality; fill-rule:evenodd; clip-rule:evenodd"
viewBox="0 0 1259.28 1259.28"
 xmlns:xlink="http://www.w3.org/1999/xlink"
 xmlns:xodm="http://www.corel.com/coreldraw/odm/2003">
 <defs>
  <style type="text/css">
   <![CDATA[
    .fil0 {fill:black}
   ]]>
  </style>
 </defs>
 <g id="Layer_x0020_1">
  <metadata id="CorelCorpID_0Corel-Layer"/>
  <g id="_1346766222928">
   <path class="fil0" d="M1001.03 922.32l22.15 -29.5c4.18,-5.91 17.86,-27.71 19.66,-34.45 9.73,2.6 16.49,15.28 31.36,30.13 34.96,34.9 74.4,63.43 74.4,114.98 0,29.75 -12.9,54.77 -27.63,70.75 -32.45,35.18 -90.46,42.54 -127.86,20.79 -19.39,-11.27 -42.3,-37.23 -59.1,-54.04 -8.06,-8.06 -23.51,-19.17 -26.44,-30.13 14.02,-3.74 44.53,-37.02 59.03,-46.73 4.58,6.84 61.29,68.87 78.71,68.87 12.11,0 27.05,-14.94 27.05,-27.05 0,-22.84 -54.62,-58.68 -71.33,-83.62zm-391.25 -922.32l43.43 0c44.6,1.51 89.09,7.65 132.4,18.66 56.07,14.24 113.78,38.19 161.8,66.94 45.87,27.47 70.37,45.92 108.31,81.07 34.22,31.7 42.18,39.73 73.54,78.95 25.26,31.59 53.98,80.34 71.84,117.55 44.67,93.03 58.18,175.32 58.18,288.62 0,87.47 -30.39,192.26 -69.79,267.3 -5.73,10.9 -7.02,8.86 -2.62,18.8 28.16,63.64 17.11,129.54 -31.49,178.15 -25.1,25.1 -63.43,47.34 -112.53,47.34 -28.67,0 -43.04,-8.57 -59.03,-12.3 -42.3,28.32 -94.03,56.51 -147.24,74.12 -52.68,17.43 -116.88,34.1 -187.25,34.1 -111.76,0 -198.55,-15.03 -287.8,-58.99 -67.95,-33.47 -86.98,-49.54 -138.75,-89.99 -22.55,-17.62 -39.75,-37.64 -57.32,-55.82l-26.7 -29.86c-3.36,-4.27 -5.55,-7.63 -8.37,-11.31 -3.37,-4.41 -5.23,-6.02 -8.84,-10.83 -19.06,-25.42 -50.92,-77.67 -63.22,-106.49 -47.17,-110.48 -58.32,-165.98 -58.32,-288.48 0,-86.65 30.3,-187.74 58.99,-245.99 17.25,-35.02 35.06,-65.38 56.59,-95.9 5.65,-8 10.15,-14.76 16.66,-22.69 38.7,-47.08 65.47,-74.61 113.37,-112.91 100.65,-80.49 231.39,-125.58 364.17,-130.02zm-555.67 651.78c0,-135.72 18.4,-203.12 77.08,-311.53 15.45,-28.54 37.01,-55.7 56.76,-80.97 32.5,-41.58 103.75,-101.19 150.69,-127.24 15.75,-8.74 29.11,-16.02 45.01,-23.86 147.66,-72.74 341.74,-72.16 490.34,-0.82 16.78,8.06 29.14,15.21 45.04,23.82 8.54,4.63 12.88,8.17 21.3,13.14 36.72,21.67 51.13,39.08 77.55,60.18 100.85,80.51 187.29,258.48 187.29,400.54 0,97.69 -4.12,135.88 -35.94,227.23l-20.63 50.7c-10.89,-2.91 -78.71,-74.2 -78.71,-76.25 0,-16.51 12.3,-21.52 12.3,-49.19 0,-24.77 -38.07,-35.19 -51.73,-5 -8.94,19.76 -10.17,32.66 -27.79,68.13 -13.66,27.49 -37.76,64.58 -58.86,86.26 -8.62,8.86 -9.05,13.26 -23.36,25.83 -5.3,4.66 -6.98,4.86 -12.3,9.84 -16.32,15.28 -34.6,30.39 -54.73,41.19l-47.5 26.29c-124.28,62.23 -300.17,46.26 -412.4,-33.65 -16.45,-11.71 -51.85,-39.52 -65.83,-54.69 -26.03,-28.23 -53.23,-65.01 -70.28,-99.43 -17.4,-35.12 -16.38,-40.56 -27.87,-68.05 -12.37,-29.58 -52.46,-27.17 -52.46,8.19 0,24.39 41.54,106.45 60.05,131.79 14.75,20.2 25.32,35.8 42.68,53.24 9.12,9.17 12.85,16.95 23.43,25.76 6.01,5.01 7.55,5.31 13.43,11.16 5.84,5.81 7.05,6.5 13.22,11.38 18.09,14.31 35.53,28.55 56.25,39.67 21.94,11.79 40.53,22.65 65.7,32.68 136.91,54.56 280.97,42.44 408.99,-25.3l74.37 75.66c-46.93,26.14 -69.73,41.46 -126.31,59.33 -188.98,59.66 -375.24,23.79 -531.68,-92.46 -25.91,-19.26 -68.04,-58.95 -88.2,-83.96 -35.78,-44.41 -55.59,-74.53 -80.83,-125.77 -26.13,-53.04 -54.07,-144.91 -54.07,-223.85z"/>
   <path class="fil0" d="M863.3 420.58c40.35,0 69.17,24.66 77.7,57.57 6.1,23.53 -1.64,37.5 20.92,45.72 17.85,6.51 34.69,-8.35 36.02,-24.98 2.44,-30.49 -16.12,-69.02 -37.4,-91.93 -49.27,-53.07 -135.42,-54.21 -188.36,-1.26 -21.96,21.96 -40.99,63.24 -38.59,93.19 1.3,16.29 17.62,30.52 34.2,25.62 30.8,-9.1 10.27,-32.53 31.64,-66.97 3.36,-5.41 10.05,-14.59 15.61,-18.82 11.9,-9.06 28.53,-18.15 48.26,-18.15z"/>
   <path class="fil0" d="M391.07 420.58c40.35,0 69.17,24.66 77.7,57.57 6.1,23.53 -1.64,37.5 20.92,45.72 17.85,6.51 34.69,-8.35 36.02,-24.98 2.44,-30.49 -16.12,-69.02 -37.4,-91.93 -61.98,-66.75 -176.57,-48.54 -215.3,38.2 -4.7,10.52 -12.81,39.3 -11.65,53.72 1.3,16.29 17.62,30.52 34.2,25.62 34.1,-10.08 7.32,-55.37 47.26,-85.79 11.9,-9.06 28.53,-18.15 48.26,-18.15z"/>
  </g>
 </g>
</svg>
